<?xml version="1.0" encoding="utf-8"?>
<!-- Generator: Adobe Illustrator 25.2.1, SVG Export Plug-In . SVG Version: 6.00 Build 0)  -->
<svg version="1.1" id="Layer_1_copy" xmlns="http://www.w3.org/2000/svg" xmlns:xlink="http://www.w3.org/1999/xlink" x="0px"
	 y="0px" viewBox="0 0 500 500" style="enable-background:new 0 0 500 500;" xml:space="preserve">
<style type="text/css">
	.st0{fill:#333441;}
	.st1{fill:#D80F16;}
	.st2{fill:#FFFFFF;}
</style>
<g>
	<path class="st0" d="M462.5,500h-425C16.8,500,0,483.2,0,462.5v-425C0,16.8,16.8,0,37.5,0h425C483.2,0,500,16.8,500,37.5v425
		C500,483.2,483.2,500,462.5,500z"/>
	<g>
		<path class="st1" d="M235.7,38H187c-3.2,0-5.9,0.7-8,2.1c-2.1,1.4-4.1,3.7-5.9,6.9l-26.8,49c-1,1.8-1.9,3.1-2.6,3.9
			c-0.7,0.8-1.7,1.2-2.9,1.2h-2.7c-1.2,0-2.2-0.4-2.9-1.2c-0.7-0.8-1.6-2.1-2.6-3.9l-27.1-49c-1.8-3.2-3.8-5.5-5.9-6.9
			c-2.1-1.4-4.8-2.1-8-2.1H43.6c-3.8,0-6.6,0.9-8.3,2.6c-1.7,1.7-2.6,4.5-2.6,8.3v194.8c0,3.8,0.9,6.6,2.6,8.3
			c1.7,1.7,4.5,2.6,8.3,2.6h44.8c3.8,0,6.6-0.8,8.3-2.6c1.7-1.7,2.6-4.5,2.6-8.3V137.8l17.7,32.8c1.8,3.4,4,5.9,6.5,7.4
			c2.5,1.5,5.7,2.3,9.5,2.3h12c3.8,0,7-0.8,9.5-2.3c2.5-1.5,4.7-4,6.5-7.4l17.7-32.8v105.8c0,3.8,0.9,6.6,2.6,8.3
			c1.7,1.7,4.5,2.6,8.3,2.6h46.3c3.8,0,6.6-0.8,8.3-2.6c1.7-1.7,2.6-4.5,2.6-8.3V48.8c0-3.8-0.9-6.6-2.6-8.3
			C242.2,38.8,239.5,38,235.7,38z"/>
		<path class="st1" d="M424.3,38c-12.1-3-27.5-4.5-46.1-4.5c-18.6,0-34.1,1.5-46.3,4.5c-12.2,3-21.8,7.2-28.7,12.6
			S291.4,62.5,288.7,70c-2.7,7.5-4.1,15.9-4.1,25.1v102.5c0,9.2,1.4,17.6,4.1,25.1c2.7,7.5,7.5,13.9,14.4,19.2
			c6.9,5.3,16.5,9.5,28.7,12.5c12.2,3,27.7,4.5,46.3,4.5c18.6,0,34-1.5,46.1-4.5c12.1-3,21.6-7.2,28.6-12.5
			c6.9-5.3,11.7-11.7,14.4-19.2L426.5,38.6C425.7,38.4,425,38.2,424.3,38z M403.4,186.8c0,4-1.5,7.4-4.5,10.1
			c-3,2.7-9.9,4.1-20.7,4.1c-10.8,0-17.7-1.4-20.7-4.1c-3-2.7-4.5-6.1-4.5-10.1v-80.9c0-3.8,1.5-7.1,4.5-9.8c3-2.7,9.9-4.1,20.7-4.1
			c10.8,0,17.7,1.4,20.7,4.1c3,2.7,4.5,6,4.5,9.8V186.8z"/>
	</g>
	<g>
		<g>
			<path class="st2" d="M134.9,378.2c4.2-1.8,7.3-4.6,9.3-8.3c2-3.7,3-8.5,3-14.4v-10.1c0-10.9-3.3-19-9.9-24.2
				c-6.6-5.2-16.7-7.9-30.4-7.9H40.1c-2.7,0-4.6,0.6-5.8,1.8c-0.8,0.8-1.3,1.8-1.5,3.2l32.3,146h55.5c13.8,0,24.1-2.8,30.7-8.4
				c6.6-5.6,10-14.3,10-26v-19.3c0-10.2-2.2-18-6.5-23.3C150.5,382.1,143.8,379,134.9,378.2z M79.7,349h17.8c2.7,0,4.6,0.7,6,2.1
				c1.3,1.4,2,3.5,2,6.3v5.9c0,2.8-0.7,4.9-2,6.3c-1.3,1.4-3.3,2.1-6,2.1H79.7V349z M115,420.3c0,2.8-0.7,4.9-2,6.3
				c-1.3,1.4-3.3,2.1-6,2.1H79.7V404H107c2.7,0,4.6,0.7,6,2c1.3,1.3,2,3.4,2,6.2V420.3z"/>
			<path class="st2" d="M291.5,382c4.3-1.8,7.4-4.8,9.1-8.9c1.7-4.1,2.6-9.1,2.6-15v-9.6c0-10.3-3-18.8-8.9-25.3
				c-5.9-6.5-16.7-9.8-32.4-9.8h-69.8c-2.7,0-4.6,0.6-5.8,1.8c-1.2,1.2-1.8,3.1-1.8,5.8v135.9c0,2.7,0.6,4.6,1.8,5.8
				c1.2,1.2,3.1,1.8,5.8,1.8h32.3c2.7,0,4.6-0.6,5.8-1.8c1.2-1.2,1.8-3.1,1.8-5.8v-41.1h29.4c2.9,0,5,0.7,6.2,2.2
				c1.2,1.5,1.8,3.7,1.8,6.8v32.1c0,2.7,0.6,4.6,1.8,5.8c1.2,1.2,3.1,1.8,5.8,1.8h32.5c2.7,0,4.6-0.6,5.8-1.8
				c1.2-1.2,1.8-3.1,1.8-5.8v-44.5c0-8.8-2.3-15.9-7-21.2C305.2,385.9,299.1,382.8,291.5,382z M256.9,368.1c0,2.8-0.6,5.1-1.9,7
				c-1.3,1.9-3.7,2.8-7.3,2.8H232v-26.8h15.7c3.6,0,6.1,0.9,7.3,2.8c1.3,1.9,1.9,4.2,1.9,7V368.1z"/>
			<path class="st2" d="M464.4,335.7c-1.9-5.2-5.2-9.8-10.1-13.5c-4.8-3.8-11.5-6.7-19.9-8.8c-8.5-2.1-19.2-3.1-32.2-3.1
				c-13,0-23.8,1-32.3,3.1c-8.5,2.1-15.2,5-20,8.8c-4.8,3.8-8.2,8.3-10.1,13.5s-2.8,11.1-2.8,17.5v71.5c0,6.4,0.9,12.3,2.8,17.5
				c1.9,5.2,5.2,9.7,10.1,13.4c4.8,3.7,11.5,6.6,20,8.7c8.5,2.1,19.3,3.1,32.3,3.1c13,0,23.7-1,32.2-3.1c8.5-2.1,15.1-5,19.9-8.7
				c4.8-3.7,8.2-8.2,10.1-13.4c1.9-5.2,2.8-11.1,2.8-17.5v-71.5C467.2,346.8,466.3,341,464.4,335.7z M419.8,417.2c0,2.8-1,5.1-3.1,7
				c-2.1,1.9-6.9,2.8-14.5,2.8c-7.5,0-12.4-0.9-14.5-2.8c-2.1-1.9-3.1-4.2-3.1-7v-56.4c0-2.7,1-4.9,3.1-6.8
				c2.1-1.9,6.9-2.8,14.5-2.8c7.5,0,12.4,0.9,14.5,2.8c2.1,1.9,3.1,4.2,3.1,6.8V417.2z"/>
		</g>
	</g>
</g>
</svg>
